<svg aria-hidden="true" style="position: absolute; width: 0; height: 0; overflow: hidden;" version="1.1" xmlns="http://www.w3.org/2000/svg" xmlns:xlink="http://www.w3.org/1999/xlink">
<defs>
<symbol id="icon-telegram" viewBox="0 0 32 32">
<path d="M15.943 0.478h0.082c1.139 0.021 2.279 0.13 3.39 0.39 2.43 0.542 4.719 1.693 6.615 3.305 1.604 1.36 2.929 3.047 3.865 4.929 1.028 2.056 1.587 4.346 1.621 6.645 0.052 2.53-0.528 5.070-1.68 7.324-1.696 3.357-4.656 6.051-8.16 7.421-2.462 0.977-5.177 1.292-7.8 0.937-2.188-0.293-4.31-1.065-6.176-2.244-1.959-1.232-3.637-2.908-4.87-4.866-1.767-2.776-2.599-6.128-2.354-9.409 0.162-2.354 0.877-4.668 2.070-6.705 1.372-2.357 3.376-4.342 5.747-5.689 2.316-1.332 4.983-2.021 7.651-2.038v0zM22.812 8.927c-5.315 1.901-10.631 3.799-15.945 5.698-0.338 0.123-0.691 0.232-0.984 0.448-0.129 0.099-0.261 0.235-0.261 0.41-0.002 0.137 0.097 0.246 0.2 0.324 0.202 0.146 0.447 0.212 0.683 0.283 1.337 0.382 2.668 0.782 4.007 1.156 0.328-0.162 0.633-0.367 0.953-0.545 2.946-1.72 5.892-3.441 8.838-5.162 0.188-0.108 0.411-0.22 0.632-0.151 0.076 0.025 0.093 0.126 0.038 0.184-0.111 0.135-0.257 0.235-0.387 0.35-2.551 2.136-5.1 4.276-7.652 6.411-0.102 1.351-0.212 2.702-0.304 4.054 0.237-0.011 0.48-0.072 0.666-0.227 0.764-0.654 1.493-1.354 2.265-1.996 1.432 0.952 2.84 1.943 4.268 2.902 0.307 0.169 0.694 0.294 1.032 0.14 0.335-0.161 0.472-0.54 0.553-0.878 0.904-3.949 1.806-7.898 2.71-11.847 0.081-0.366 0.193-0.748 0.1-1.123-0.059-0.252-0.251-0.471-0.502-0.541-0.305-0.093-0.624 0.002-0.912 0.111z"></path>
</symbol>
<symbol id="icon-ggg" viewBox="0 0 29 32">
<path d="M10.772 1.72c-1.178-1.171-3.081-1.165-4.251 0.013s-1.164 3.082 0.014 4.252l9.955 9.893-9.955 9.893c-1.178 1.17-1.184 3.074-0.014 4.252s3.074 1.184 4.251 0.014l12.101-12.026c0.567-0.564 0.887-1.331 0.887-2.132s-0.32-1.568-0.887-2.132l-12.101-12.025z"></path>
</symbol>
<symbol id="icon-facebook" viewBox="0 0 32 32">
<path d="M15.004 0.489c1.213-0.052 2.435-0.024 3.632 0.194 2.208 0.375 4.33 1.243 6.173 2.516 1.745 1.201 3.241 2.763 4.366 4.558 1.325 2.102 2.127 4.528 2.323 7.004 0.043 0.335-0.004 0.671 0.002 1.007-0.005 0.401 0.004 0.802 0.019 1.203-0.129 2.145-0.707 4.263-1.696 6.171-1.723 3.367-4.72 6.058-8.254 7.406-2.345 0.908-4.914 1.217-7.41 0.926-2.014-0.231-3.978-0.87-5.748-1.857-1.782-0.995-3.366-2.343-4.63-3.943-1.954-2.452-3.134-5.511-3.324-8.641-0.056-1.278-0.024-2.568 0.221-3.826 0.388-2.159 1.252-4.23 2.502-6.033 1.146-1.658 2.617-3.092 4.306-4.192 2.232-1.465 4.852-2.334 7.517-2.493v0zM15.023 7.671c-0.752 0.73-1.069 1.8-1.093 2.826-0.011 0.735-0.006 1.471-0.003 2.207-0.61 0.021-1.221 0.004-1.831 0.009-0.005 1.095-0.002 2.191-0.002 3.286 0.61 0.003 1.22 0.003 1.83 0 0.002 3.12-0.002 6.24 0.002 9.36 1.282-0.006 2.566 0.012 3.849-0.009-0.013-3.114-0.001-6.23-0.006-9.344 0.782-0.010 1.565-0.004 2.347-0.003 0.066-0.014 0.21 0.035 0.201-0.078 0.109-1.070 0.222-2.14 0.324-3.21-0.956 0.004-1.913 0.002-2.87 0.001-0.004-0.547 0-1.095-0.002-1.642 0.002-0.285-0.018-0.594 0.14-0.846 0.15-0.244 0.451-0.343 0.725-0.344 0.673-0.004 1.346 0.002 2.019-0.002 0.002-1.063 0.001-2.125 0.001-3.187-0.986-0.005-1.973-0.016-2.959-0.009-0.964 0.010-1.972 0.29-2.671 0.985z"></path>
</symbol>
<symbol id="icon-github" viewBox="0 0 32 32">
<path d="M8.962 2.157c3.868-1.984 8.581-2.212 12.627-0.628 2.629 1.013 4.967 2.763 6.687 4.995 1.251 1.613 2.178 3.476 2.709 5.447 0.644 2.387 0.706 4.927 0.185 7.343-0.452 2.105-1.353 4.112-2.622 5.851-1.161 1.594-2.627 2.967-4.297 4.017-1.852 1.171-3.958 1.938-6.129 2.236-2.397 0.33-4.872 0.103-7.161-0.683-3.774-1.272-7-4.067-8.808-7.613-1.131-2.179-1.705-4.63-1.72-7.082v-0.031c0.016-2.425 0.576-4.851 1.684-7.012 1.479-2.928 3.915-5.362 6.844-6.839v0zM10.643 8.628c-2.001 1.435-3.389 3.708-3.71 6.154-0.347 2.397 0.333 4.898 1.758 6.846 1.241 1.719 3.075 3.037 5.149 3.529-0.005-1.001-0.005-2.001-0-3.001-0.409 0.053-0.838 0.082-1.231-0.072-0.499-0.163-0.912-0.526-1.187-0.967-0.236-0.359-0.54-0.767-1.011-0.784-0.032-0.354-0.072-0.708-0.088-1.063 0.677-0.045 1.305 0.342 1.711 0.859 0.232 0.277 0.373 0.641 0.693 0.836 0.338 0.222 0.781 0.182 1.141 0.038 0.073-0.196 0.082-0.413 0.186-0.597 0.109-0.254 0.312-0.451 0.437-0.696-0.375-0.078-0.759-0.13-1.117-0.273-0.986-0.311-1.884-0.971-2.37-1.896-0.665-1.26-0.573-2.862 0.167-4.070 0.098-0.163 0.241-0.297 0.316-0.472-0.041-0.249-0.131-0.489-0.141-0.743-0.061-0.555 0.067-1.107 0.246-1.629 0.3 0.057 0.612 0.062 0.898 0.176 0.433 0.166 0.831 0.408 1.228 0.644 0.113 0.065 0.232 0.164 0.371 0.11 1.020-0.271 2.098-0.342 3.137-0.142 0.268 0.030 0.523 0.141 0.792 0.156 0.552-0.291 1.076-0.656 1.68-0.836 0.224-0.047 0.452-0.068 0.677-0.105 0.26 0.744 0.358 1.569 0.097 2.326 0.156 0.283 0.317 0.563 0.468 0.85 0.972 1.6 0.457 3.881-1.051 4.967-0.683 0.518-1.519 0.783-2.354 0.927-0.090 0.005-0.019 0.102 0.007 0.14 0.233 0.321 0.485 0.651 0.541 1.055 0.075 0.557 0.027 1.122 0.041 1.683-0 0.862 0.001 1.723-0.001 2.585 2.628-0.637 4.852-2.568 6.019-4.986 1.092-2.191 1.291-4.824 0.467-7.135-0.378-1.1-0.978-2.122-1.742-2.998-1.432-1.655-3.472-2.78-5.645-3.068-2.296-0.331-4.709 0.278-6.578 1.652z"></path>
</symbol>
<symbol id="icon-ARROWR" viewBox="0 0 32 32">
<path d="M15.976 0.816v0c-4.177 0-7.992 1.723-10.714 4.445-2.726 2.726-4.449 6.537-4.449 10.717 0 4.266 1.723 7.988 4.449 10.804 2.722 2.723 6.537 4.449 10.714 4.449s7.989-1.726 10.711-4.449c2.726-2.816 4.453-6.537 4.453-10.804 0-4.18-1.727-7.992-4.453-10.717-2.722-2.722-6.535-4.445-10.711-4.445zM14.16 9.621l6.262 6.265c0.093 0.093 0.093 0.183 0 0.272l-6.262 6.265c-0.525 0.525-1.361 0.262-1.618 0.004-0.241-0.244-0.501-0.895-0.019-1.365l4.904-4.904c0.094-0.090 0.094-0.18 0-0.272-1.634-1.633-3.27-3.268-4.904-4.901-0.459-0.508-0.231-1.121 0.152-1.458 0.412-0.332 0.955-0.357 1.366 0.039 0 0 0.12 0.055 0.12 0.055z"></path>
</symbol>
</symbol>
</defs>
</svg>
