<svg aria-hidden="true" style="position:absolute;width:0;height:0" xmlns="http://www.w3.org/2000/svg" overflow="hidden">
<symbol id="icon-home" viewBox="0 0 35 32"><path fill="var(--color4, #d31342)" d="M32.64 15.401a1.541 1.541 0 00-.129-2.225L17.739.426c-.671-.578-1.745-.566-2.402.027L.515 13.856a1.532 1.532 0 00-.071 2.222l.372.382c.617.633 1.613.708 2.224.168l1.108-.979v14.326c0 .879.722 1.591 1.612 1.591h5.778c.89 0 1.612-.712 1.612-1.591V19.952h7.37v10.023c-.013.878.624 1.59 1.515 1.59h6.123c.89 0 1.613-.711 1.613-1.59V15.851l.683.592c.377.328 1.168.065 1.767-.586l.42-.455z"/></symbol>

<symbol id="icon-burger" viewBox="0 0 50 32">
<path d="M14.261 6.364h31.137c0.801 0 1.456-0.655 1.456-1.456v0c0-0.801-0.655-1.456-1.456-1.456h-31.137c-0.801 0-1.456 0.655-1.456 1.456v0c0 0.801 0.655 1.456 1.456 1.456z"></path>
<path d="M14.261 17.724h31.137c0.801 0 1.456-0.655 1.456-1.456v0c0-0.801-0.655-1.456-1.456-1.456h-31.137c-0.801 0-1.456 0.655-1.456 1.456v0c0 0.801 0.655 1.456 1.456 1.456z"></path>
<path d="M14.261 29.083h31.137c0.801 0 1.456-0.655 1.456-1.456v0c0-0.801-0.655-1.456-1.456-1.456h-31.137c-0.801 0-1.456 0.655-1.456 1.456v0c0 0.801 0.655 1.456 1.456 1.456z"></path>
<path d="M6.096 24.449c0.869 0 1.657 0.353 2.227 0.923 0.571 0.572 0.925 1.36 0.925 2.229s-0.353 1.657-0.923 2.227c-0.572 0.571-1.36 0.925-2.229 0.925s-1.657-0.353-2.227-0.923c-0.571-0.572-0.925-1.36-0.925-2.229s0.353-1.657 0.923-2.227c0.572-0.571 1.36-0.925 2.229-0.925zM7.679 26.017c-0.405-0.404-0.965-0.654-1.583-0.654s-1.178 0.25-1.583 0.654c-0.404 0.405-0.654 0.965-0.654 1.583s0.25 1.178 0.654 1.583c0.405 0.404 0.965 0.654 1.583 0.654s1.178-0.25 1.583-0.654c0.404-0.405 0.654-0.965 0.654-1.583s-0.251-1.178-0.654-1.583z"></path>
<path d="M6.096 13.104c0.869 0 1.657 0.353 2.227 0.923 0.571 0.572 0.925 1.36 0.925 2.229s-0.353 1.657-0.923 2.227c-0.572 0.571-1.36 0.925-2.229 0.925s-1.657-0.353-2.227-0.923c-0.571-0.572-0.925-1.36-0.925-2.229s0.353-1.657 0.923-2.227c0.572-0.571 1.36-0.925 2.229-0.925zM7.679 14.672c-0.405-0.404-0.965-0.654-1.583-0.654s-1.178 0.251-1.583 0.654c-0.404 0.405-0.654 0.965-0.654 1.583s0.25 1.178 0.654 1.583c0.405 0.404 0.965 0.654 1.583 0.654s1.178-0.25 1.583-0.654c0.404-0.405 0.654-0.965 0.654-1.583s-0.251-1.178-0.654-1.583z"></path>
<path d="M6.096 1.76c0.869 0 1.657 0.353 2.227 0.923 0.571 0.572 0.925 1.36 0.925 2.229s-0.353 1.657-0.923 2.227c-0.572 0.571-1.36 0.925-2.229 0.925s-1.657-0.353-2.227-0.923c-0.571-0.572-0.925-1.36-0.925-2.229s0.353-1.657 0.923-2.227c0.572-0.571 1.36-0.925 2.229-0.925zM7.679 3.328c-0.405-0.404-0.965-0.654-1.583-0.654s-1.178 0.251-1.583 0.654c-0.404 0.405-0.654 0.965-0.654 1.583s0.25 1.178 0.654 1.583c0.405 0.404 0.965 0.654 1.583 0.654s1.178-0.25 1.583-0.654c0.404-0.405 0.654-0.965 0.654-1.583s-0.251-1.179-0.654-1.583z"></path>
</symbol>
<symbol id="icon-cross_3917759" viewBox="0 0 32 32">
<path d="M18.828 16l12.586-12.585c0.781-0.781 0.781-2.048 0-2.829s-2.048-0.781-2.829 0v0l-12.585 12.586-12.585-12.586c-0.781-0.781-2.048-0.781-2.829 0s-0.781 2.048 0 2.829l12.586 12.585-12.586 12.585c-0.781 0.781-0.781 2.048 0 2.829s2.048 0.781 2.829 0l12.585-12.586 12.585 12.586c0.781 0.781 2.048 0.781 2.829 0s0.781-2.048 0-2.829l-12.586-12.585z"></path>
</symbol>
<symbol id="icon-cross_3917759" viewBox="0 0 32 32">
<path d="M18.828 16l12.586-12.585c0.781-0.781 0.781-2.048 0-2.829s-2.048-0.781-2.829 0v0l-12.585 12.586-12.585-12.586c-0.781-0.781-2.048-0.781-2.829 0s-0.781 2.048 0 2.829l12.586 12.585-12.586 12.585c-0.781 0.781-0.781 2.048 0 2.829s2.048 0.781 2.829 0l12.585-12.586 12.585 12.586c0.781 0.781 2.048 0.781 2.829 0s0.781-2.048 0-2.829l-12.586-12.585z"></path>
</symbol>
<symbol id="icon-ellipsis-reviews" viewBox="0 0 256 32"><path fill="var(--color3, #c7133e)" d="M144 16c0 8.837-7.163 16-16 16s-16-7.163-16-16 7.163-16 16-16 16 7.163 16 16zM32 16c0 8.837-7.163 16-16 16S0 24.837 0 16 7.163 0 16 0s16 7.163 16 16zM256 16c0 8.837-7.163 16-16 16s-16-7.163-16-16 7.163-16 16-16 16 7.163 16 16z"/></symbol>
<symbol id="icon-close" viewBox="0 0 32 32">
<path d="M18.828 16l12.586-12.585c0.781-0.781 0.781-2.048 0-2.829s-2.048-0.781-2.829 0v0l-12.585 12.586-12.585-12.586c-0.781-0.781-2.048-0.781-2.829 0s-0.781 2.048 0 2.829l12.586 12.585-12.586 12.585c-0.781 0.781-0.781 2.048 0 2.829s2.048 0.781 2.829 0l12.585-12.586 12.585 12.586c0.781 0.781 2.048 0.781 2.829 0s0.781-2.048 0-2.829l-12.586-12.585z"></path>
</symbol>
<symbol id="icon-quotes" viewBox="0 0 43 32"><path fill="var(--color5, #e1e1e1)" d="M32.014 0c1.929 0 3.75.52 5.464 1.561s3.107 2.537 4.179 4.488C42.686 8 43.2 10.298 43.2 12.943s-.643 5.225-1.929 7.74c-.429.911-1.2 2.081-2.314 3.512a63.368 63.368 0 01-3.214 3.707L31.693 32 28.8 27.187a22.03 22.03 0 005.336-4.683c1.543-1.821 2.314-3.491 2.314-5.008 0-.78-.171-1.409-.514-1.886a8.359 8.359 0 01-5.014 1.626c-1.329 0-2.593-.412-3.793-1.236a8.555 8.555 0 01-2.957-3.122c-.771-1.258-1.157-2.558-1.157-3.902 0-1.518.45-2.97 1.35-4.358a10.222 10.222 0 013.407-3.382C29.143.412 30.558 0 32.015 0zM8.936 0c1.929 0 3.75.52 5.464 1.561s3.107 2.537 4.179 4.488c1.029 1.951 1.543 4.249 1.543 6.894 0 1.864-.236 3.534-.707 5.008-.471 1.518-1.286 3.1-2.443 4.748-1.114 1.561-2.164 2.862-3.15 3.902-.986 1.084-2.7 2.884-5.143 5.398l-2.893-4.813a22.03 22.03 0 005.336-4.683c1.543-1.821 2.314-3.491 2.314-5.008 0-.78-.171-1.409-.514-1.886a8.359 8.359 0 01-5.014 1.626c-1.329 0-2.593-.412-3.793-1.236a8.555 8.555 0 01-2.957-3.122C.387 11.619.001 10.319.001 8.975c0-1.518.429-2.97 1.286-4.358S3.28 2.102 4.694 1.235C6.065.411 7.48-.001 8.937-.001z"/></symbol>
<symbol id="icon-vector" viewBox="0 0 6 10" fill="none"><path d="M1 1l4 4-4 4" stroke-width="2" stroke-linecap="round" stroke-linejoin="round"/></symbol><symbol id="S" viewBox="0 0 43 32"><path fill="var(--color1, #e1e1e1)" d="M32.014 0c1.929 0 3.75.52 5.464 1.561s3.107 2.537 4.179 4.488C42.686 8 43.2 10.298 43.2 12.943s-.643 5.225-1.929 7.74c-.429.911-1.2 2.081-2.314 3.512a63.368 63.368 0 01-3.214 3.707L31.693 32 28.8 27.187a22.03 22.03 0 005.336-4.683c1.543-1.821 2.314-3.491 2.314-5.008 0-.78-.171-1.409-.514-1.886a8.359 8.359 0 01-5.014 1.626c-1.329 0-2.593-.412-3.793-1.236a8.555 8.555 0 01-2.957-3.122c-.771-1.258-1.157-2.558-1.157-3.902 0-1.518.45-2.97 1.35-4.358a10.222 10.222 0 013.407-3.382C29.143.412 30.558 0 32.015 0zM8.936 0c1.929 0 3.75.52 5.464 1.561s3.107 2.537 4.179 4.488c1.029 1.951 1.543 4.249 1.543 6.894 0 1.864-.236 3.534-.707 5.008-.471 1.518-1.286 3.1-2.443 4.748-1.114 1.561-2.164 2.862-3.15 3.902-.986 1.084-2.7 2.884-5.143 5.398l-2.893-4.813a22.03 22.03 0 005.336-4.683c1.543-1.821 2.314-3.491 2.314-5.008 0-.78-.171-1.409-.514-1.886a8.359 8.359 0 01-5.014 1.626c-1.329 0-2.593-.412-3.793-1.236a8.555 8.555 0 01-2.957-3.122C.387 11.619.001 10.319.001 8.975c0-1.518.429-2.97 1.286-4.358S3.28 2.102 4.694 1.235C6.065.411 7.48-.001 8.937-.001z"/></symbol>
<symbol id="icon-group-36" viewBox="0 0 26 32"><path fill="var(--color1, #e1e1e1)" d="M32.014 0c1.929 0 3.75.52 5.464 1.561s3.107 2.537 4.179 4.488C42.686 8 43.2 10.298 43.2 12.943s-.643 5.225-1.929 7.74c-.429.911-1.2 2.081-2.314 3.512a63.368 63.368 0 01-3.214 3.707L31.693 32 28.8 27.187a22.03 22.03 0 005.336-4.683c1.543-1.821 2.314-3.491 2.314-5.008 0-.78-.171-1.409-.514-1.886a8.359 8.359 0 01-5.014 1.626c-1.329 0-2.593-.412-3.793-1.236a8.555 8.555 0 01-2.957-3.122c-.771-1.258-1.157-2.558-1.157-3.902 0-1.518.45-2.97 1.35-4.358a10.222 10.222 0 013.407-3.382C29.143.412 30.558 0 32.015 0zM8.936 0c1.929 0 3.75.52 5.464 1.561s3.107 2.537 4.179 4.488c1.029 1.951 1.543 4.249 1.543 6.894 0 1.864-.236 3.534-.707 5.008-.471 1.518-1.286 3.1-2.443 4.748-1.114 1.561-2.164 2.862-3.15 3.902-.986 1.084-2.7 2.884-5.143 5.398l-2.893-4.813a22.03 22.03 0 005.336-4.683c1.543-1.821 2.314-3.491 2.314-5.008 0-.78-.171-1.409-.514-1.886a8.359 8.359 0 01-5.014 1.626c-1.329 0-2.593-.412-3.793-1.236a8.555 8.555 0 01-2.957-3.122C.387 11.619.001 10.319.001 8.975c0-1.518.429-2.97 1.286-4.358S3.28 2.102 4.694 1.235C6.065.411 7.48-.001 8.937-.001z"/></symbol>
<symbol id="icon-Group-8" viewBox="0 0 256 32">
<path fill="#c7133e" style="fill: var(--color1, #c7133e)" d="M144 16c0 8.837-7.163 16-16 16s-16-7.163-16-16c0-8.837 7.163-16 16-16s16 7.163 16 16z"></path>
<path fill="#c7133e" style="fill: var(--color1, #c7133e)" d="M32 16c0 8.837-7.163 16-16 16s-16-7.163-16-16c0-8.837 7.163-16 16-16s16 7.163 16 16z"></path>
<path fill="#c7133e" style="fill: var(--color1, #c7133e)" d="M256 16c0 8.837-7.163 16-16 16s-16-7.163-16-16c0-8.837 7.163-16 16-16s16 7.163 16 16z"></path>
</symbol>
<symbol id="icon-hr-dots" viewBox="0 0 195 32">
<path fill="#d9d9d9" style="fill: var(--color1, #d9d9d9)" d="M113.053 16c0 8.837-7.163 16-16 16s-16-7.163-16-16c0-8.837 7.163-16 16-16s16 7.163 16 16z"></path>
<path fill="#d31342" style="fill: var(--color2, #d31342)" d="M32.64 15.401c0.599-0.65 0.541-1.646-0.129-2.225l-14.772-12.75c-0.671-0.578-1.745-0.566-2.402 0.027l-14.822 13.403c-0.656 0.594-0.689 1.589-0.071 2.222l0.372 0.382c0.617 0.633 1.613 0.708 2.224 0.168l1.108-0.979v14.326c0 0.879 0.722 1.591 1.612 1.591h5.778c0.89 0 1.612-0.712 1.612-1.591v-10.023h7.37v10.023c-0.013 0.878 0.624 1.59 1.515 1.59h6.123c0.89 0 1.613-0.711 1.613-1.59v-14.124c0 0 0.306 0.264 0.683 0.592s1.168 0.065 1.767-0.586l0.42-0.455z"></path>
<path fill="#d9d9d9" style="fill: var(--color1, #d9d9d9)" d="M193.053 16c0 8.837-7.163 16-16 16s-16-7.163-16-16c0-8.837 7.163-16 16-16s16 7.163 16 16z"></path>
</symbol>
<symbol id="icon-arrow-right2" viewBox="0 0 29 32">
<path fill="currentColor" d="M10.772 1.72c-1.178-1.171-3.081-1.165-4.251 0.013s-1.164 3.082 0.014 4.252l9.955 9.893-9.955 9.893c-1.178 1.17-1.184 3.074-0.014 4.252s3.074 1.184 4.251 0.014l12.101-12.026c0.567-0.564 0.887-1.331 0.887-2.132s-0.32-1.568-0.887-2.132l-12.101-12.025z"></path>
</symbol>

<symbol id="icon-arrow2" viewBox="0 0 32 32">
  <path style="fill: var(--color1)" d="M29.947 16.053c0 7.732-6.268 14-14 14s-14-6.268-14-14c0-7.732 6.268-14 14-14s14 6.268 14 14z"></path>
  <path style="fill: var(--color2)" d="M15.238 10.098c0.199-0.175 0.468-0.278 0.735-0.25 0.193 0.019 0.374 0.108 0.517 0.237 0.049 0.046 0.12 0.058 0.168 0.104 1.888 1.889 3.777 3.778 5.665 5.668 0.055 0.060 0.13 0.11 0.152 0.192 0.018 0.090-0.064 0.151-0.118 0.208-1.866 1.865-3.73 3.731-5.595 5.597-0.107 0.108-0.213 0.222-0.35 0.292-0.27 0.144-0.598 0.144-0.885 0.053-0.165-0.055-0.334-0.134-0.44-0.277-0.195-0.254-0.279-0.61-0.156-0.914 0.076-0.199 0.249-0.333 0.392-0.482 1.105-1.1 2.209-2.201 3.314-3.301 0.045-0.044 0.089-0.089 0.132-0.135-2.603-0.005-5.206-0.010-7.81-0.015-0.229-0.002-0.462 0.011-0.688-0.043-0.284-0.063-0.557-0.221-0.715-0.471-0.138-0.214-0.176-0.49-0.093-0.731 0.078-0.237 0.264-0.428 0.482-0.542 0.254-0.135 0.546-0.183 0.831-0.185 2.672 0.006 5.344 0.009 8.016-0.007-0.591-0.603-1.193-1.195-1.789-1.793-0.618-0.618-1.237-1.236-1.855-1.853-0.156-0.157-0.26-0.371-0.261-0.595-0.003-0.289 0.144-0.563 0.352-0.756z"></path>
</symbol>
<symbol id="icon-logo" viewBox="0 0 126 32">
<path d="M15.905 0.426h0.828c7.35 0.012 14.092 5.839 15.171 13.095 1.399 7.3-3.28 15.133-10.367 17.378 0.571-2.302 3.481-2.709 4.076-4.942 0.364-1.549 0.226-3.161 0.263-4.741 0.746-0.953 2.001-1.819 1.819-3.198-0.715-1.436-1.812-2.716-1.837-4.409-0.326-3.656-3.13-6.817-6.623-7.814-5.237-1.656-11.314 2.302-11.74 7.814-0.019 1.681-1.116 2.954-1.819 4.384-0.238 1.386 1.060 2.264 1.8 3.23 0.038 1.58-0.1 3.198 0.263 4.754 0.552 2.321 3.801 2.565 4.001 5.086-6.798-2.032-11.621-9.081-10.919-16.168 0.408-7.745 7.344-14.343 15.083-14.468z"></path>
<path d="M10.869 9.859c3.048-3.311 8.605-3.368 11.602 0.044-3.424 2.54-8.21 2.571-11.602-0.044z"></path>
<path d="M9.101 15.56c0.144-1.424 0.414-2.835 0.778-4.215 3.907 3.123 9.69 3.123 13.603 0 0.358 1.386 0.627 2.791 0.778 4.208-5.055 0.006-10.11 0.006-15.158 0.006z"></path>
<path d="M8.248 19.141c-1.417-0.175-0.615-2.070 0.546-1.706 4.835-0.050 9.671 0.038 14.5-0.031 0.91 0.025 1.925-0.138 2.64 0.564-0.075 0.878-0.539 1.285-1.386 1.217-1.399 0.069-2.797 0.013-4.196 0-0.295 1.474 0.897 4.666-1.511 4.478-0.539-1.43-0.282-2.985-0.332-4.472-3.418-0.063-6.842 0.119-10.26-0.050z"></path>
<path d="M9.339 21.041c2.408 0.006 4.823 0.012 7.231-0.031 0 1.718 0.194 4.095 2.32 4.409 2.553 0.564 3.675-2.295 3.387-4.371 0.439-0.006 1.305-0.006 1.737-0.013-0.081 2.107 0.633 5.331-2.001 6.14-3.537 0.182-7.106 0.176-10.643 0.006-2.665-0.778-1.957-4.039-2.032-6.14z"></path>
<path d="M13.115 29.138c2.377 0.006 4.748 0.006 7.124 0-0.081 0.571-0.251 1.718-0.332 2.289-0.853 0.15-1.712 0.27-2.571 0.357h-1.869c-0.677-0.075-1.348-0.163-2.013-0.276-0.088-0.59-0.251-1.775-0.339-2.371z"></path>
<path d="M48.754 22.237c0 0.115-0.32 0.207-0.959 0.275s-1.281 0.102-1.926 0.102c-0.645 0-1.056-0.029-1.234-0.086s-0.267-0.155-0.267-0.291v-9.779c0-0.231 0.304-0.459 0.912-0.684s1.289-0.338 2.044-0.338c0.671 0 1.111 0.142 1.321 0.425 0.073 0.105 0.11 0.21 0.11 0.314v10.062zM57.888 22.497c-0.419 0.1-0.846 0.168-1.281 0.204s-0.859 0.055-1.273 0.055-0.734-0.011-0.959-0.031c-0.225-0.021-0.521-0.073-0.888-0.157s-0.702-0.199-1.006-0.346c-0.304-0.147-0.626-0.362-0.967-0.645s-0.626-0.618-0.857-1.006c-0.535-0.901-0.802-2.065-0.802-3.49 0-0.954 0.149-1.797 0.448-2.531s0.66-1.3 1.085-1.698c0.425-0.398 0.909-0.718 1.454-0.959 0.881-0.398 1.766-0.598 2.657-0.598 1.279 0 2.196 0.105 2.751 0.315 0.252 0.094 0.477 0.241 0.676 0.44s0.299 0.487 0.299 0.865c0 0.377-0.092 0.854-0.275 1.431s-0.448 0.865-0.794 0.865c-0.105 0-0.493-0.084-1.163-0.252s-1.127-0.252-1.368-0.252c-0.367 0-0.679 0.204-0.935 0.613s-0.385 0.99-0.385 1.745 0.113 1.341 0.338 1.761c0.225 0.419 0.521 0.629 0.888 0.629 0.262 0 0.736-0.107 1.423-0.322s1.087-0.322 1.203-0.322c0.325 0 0.579 0.299 0.763 0.896s0.275 1.079 0.275 1.446c0 0.367-0.113 0.658-0.338 0.873s-0.548 0.372-0.967 0.472zM68.296 22.615h-6.666c-0.514 0-0.859-0.037-1.038-0.11s-0.267-0.189-0.267-0.346v-9.952c0-0.272 0.123-0.466 0.369-0.582s0.689-0.173 1.329-0.173h6.32c0.22 0 0.33 0.364 0.33 1.093s-0.047 1.284-0.141 1.666c-0.094 0.382-0.22 0.574-0.377 0.574-0.681 0-1.829-0.068-3.443-0.204v1.053c1.551-0.063 2.563-0.094 3.034-0.094 0.283 0 0.424 0.33 0.424 0.99s-0.055 1.161-0.165 1.502-0.259 0.511-0.448 0.511l-2.846-0.063v1.006c1.824-0.136 3.081-0.204 3.773-0.204 0.22 0 0.33 0.367 0.33 1.101s-0.047 1.289-0.141 1.666c-0.094 0.377-0.22 0.566-0.377 0.566zM77.791 22.497c-0.419 0.1-0.846 0.168-1.281 0.204s-0.859 0.055-1.273 0.055-0.734-0.011-0.959-0.031c-0.225-0.021-0.521-0.073-0.888-0.157s-0.702-0.199-1.006-0.346c-0.304-0.147-0.626-0.362-0.967-0.645s-0.626-0.618-0.857-1.006c-0.535-0.901-0.802-2.065-0.802-3.49 0-0.954 0.149-1.797 0.448-2.531s0.66-1.3 1.085-1.698c0.425-0.398 0.909-0.718 1.454-0.959 0.881-0.398 1.766-0.598 2.657-0.598 1.279 0 2.196 0.105 2.751 0.315 0.252 0.094 0.477 0.241 0.676 0.44s0.299 0.487 0.299 0.865c0 0.377-0.092 0.854-0.275 1.431s-0.448 0.865-0.794 0.865c-0.105 0-0.493-0.084-1.163-0.252s-1.127-0.252-1.368-0.252c-0.367 0-0.679 0.204-0.935 0.613s-0.385 0.99-0.385 1.745 0.113 1.341 0.338 1.761c0.225 0.419 0.521 0.629 0.888 0.629 0.262 0 0.736-0.107 1.423-0.322s1.087-0.322 1.203-0.322c0.325 0 0.579 0.299 0.763 0.896s0.275 1.079 0.275 1.446c0 0.367-0.113 0.658-0.338 0.873s-0.548 0.372-0.967 0.472zM84.63 22.159c0 0.136-0.32 0.246-0.959 0.33s-1.281 0.126-1.926 0.126-1.058-0.037-1.242-0.11c-0.183-0.073-0.275-0.189-0.275-0.346v-10.109c0-0.273 0.343-0.466 1.030-0.582s1.554-0.173 2.602-0.173c1.048 0 1.727 0.003 2.036 0.008s0.673 0.024 1.093 0.055c0.419 0.031 0.752 0.084 0.998 0.157s0.519 0.168 0.818 0.283c0.299 0.115 0.532 0.265 0.7 0.448s0.33 0.401 0.487 0.652c0.283 0.451 0.425 1.093 0.425 1.926s-0.139 1.535-0.417 2.107c-0.278 0.571-0.647 1.004-1.108 1.297 1.205 1.897 1.808 3.102 1.808 3.616s-1.032 0.77-3.097 0.77c-0.597 0-1.011-0.026-1.242-0.079s-0.377-0.168-0.44-0.346l-1.022-3.239-0.267-0.016v3.223zM84.63 16.515h0.409c0.608 0 0.912-0.472 0.912-1.415 0-0.482-0.081-0.823-0.244-1.022s-0.348-0.299-0.558-0.299h-0.519v2.735zM99.456 22.615h-6.666c-0.514 0-0.859-0.037-1.037-0.11s-0.267-0.189-0.267-0.346v-9.952c0-0.272 0.123-0.466 0.369-0.582s0.689-0.173 1.329-0.173h6.32c0.22 0 0.33 0.364 0.33 1.093s-0.047 1.284-0.141 1.666c-0.094 0.382-0.22 0.574-0.377 0.574-0.681 0-1.829-0.068-3.443-0.204v1.053c1.551-0.063 2.563-0.094 3.034-0.094 0.283 0 0.424 0.33 0.424 0.99s-0.055 1.161-0.165 1.502-0.259 0.511-0.448 0.511l-2.846-0.063v1.006c1.824-0.136 3.081-0.204 3.773-0.204 0.22 0 0.33 0.367 0.33 1.101s-0.047 1.289-0.141 1.666c-0.094 0.377-0.22 0.566-0.377 0.566zM105.414 21.813c-0.021 0.304-0.181 0.514-0.479 0.629s-0.836 0.173-1.612 0.173c-0.775 0-1.423-0.071-1.942-0.212s-0.778-0.322-0.778-0.542c0-0.252 0.466-1.858 1.399-4.819s1.467-4.667 1.604-5.117c0.052-0.136 0.474-0.249 1.266-0.338s1.64-0.133 2.547-0.133c0.907 0 1.407 0.157 1.501 0.472 1.981 6.582 2.971 9.925 2.971 10.030s-0.063 0.21-0.189 0.314c-0.293 0.231-0.875 0.346-1.745 0.346-1.855 0-2.804-0.22-2.846-0.66l-0.11-1.022h-1.509l-0.079 0.88zM106.672 17.945l-0.236-2.83h-0.346l-0.267 2.83h0.849zM115.099 22.615c-0.262 0-0.642 0-1.14 0s-0.836-0.037-1.014-0.11c-0.178-0.073-0.267-0.189-0.267-0.346v-9.92c0-0.241 0.322-0.432 0.967-0.574s1.334-0.212 2.067-0.212 1.258 0.094 1.572 0.283c0.314 0.189 0.498 0.388 0.55 0.598l1.069 4.15h0.141l1.006-3.962c0.073-0.283 0.417-0.532 1.030-0.747s1.287-0.322 2.020-0.322c0.734 0 1.276 0.058 1.627 0.173s0.527 0.262 0.527 0.44v10.093c0 0.136-0.299 0.246-0.896 0.33s-1.326 0.126-2.185 0.126-1.289-0.152-1.289-0.456c0-0.828 0.089-2.3 0.267-4.418h-0.141l-0.818 4.103c-0.031 0.157-0.16 0.273-0.385 0.346s-0.563 0.11-1.014 0.11-0.726-0.031-0.825-0.094c-0.1-0.063-0.165-0.183-0.196-0.362l-0.849-4.103h-0.141c0.189 2.159 0.283 3.632 0.283 4.418 0 0.273-0.655 0.425-1.965 0.456z"></path>
</symbol>
<symbol id="icon-Vector-3" viewBox="0 0 34 32">
<path d="M30.341 3.556v24.889h-26.548v-24.889h26.548zM30.341 0h-26.548c-2.086 0-3.793 1.6-3.793 3.556v24.889c0 1.956 1.707 3.556 3.793 3.556h26.548c2.086 0 3.793-1.6 3.793-3.556v-24.889c0-1.956-1.707-3.556-3.793-3.556z"></path>
</symbol>


</defs></svg>